<svg height="512" viewBox="0 0 64 64" width="512" xmlns="http://www.w3.org/2000/svg"><g id="creditcard"><rect fill="#00d7df" height="24" rx="2" width="38" x="3" y="23"/><path d="m41 25v20a2.006 2.006 0 0 1 -2 2h-4a2.006 2.006 0 0 0 2-2v-20a2.006 2.006 0 0 0 -2-2h4a2.006 2.006 0 0 1 2 2z" fill="#00b6bd"/><path d="m61 4v18a8 8 0 0 1 -8 8h-2l-9.12 7.78a3.687 3.687 0 0 1 -.88.66 4 4 0 0 1 -4.78-6.32l.12-.12.66-.68 4-4.11v-2.21a2.006 2.006 0 0 0 -2-2h-15l8.48-14.32a12.01 12.01 0 0 1 10.2-5.68h17.32a1 1 0 0 1 1 1z" fill="#ffdaaa"/><path d="m61 4v18a8 8 0 0 1 -8 8h-2l-9.12 7.78a3.687 3.687 0 0 1 -.88.66 4 4 0 0 1 -3.95-.03 3.5 3.5 0 0 0 .83-.63l9.12-7.78h2a8 8 0 0 0 8-8v-18a1 1 0 0 0 -1-1h4a1 1 0 0 1 1 1z" fill="#ffc477"/><path d="m26 32v-4h-8v4zm-9 8a3 3 0 0 0 -3-3 2.965 2.965 0 0 0 -2 .77 2.965 2.965 0 0 0 -2-.77 3 3 0 0 0 0 6 2.965 2.965 0 0 0 2-.77 2.965 2.965 0 0 0 2 .77 3 3 0 0 0 3-3zm-2-8v-4h-8v4z" fill="#00d7df"/><path d="m37 28v3.32l-.66.68h-7.34v-4z" fill="#57a4ff"/><path d="m18 28h8v4h-8z" fill="#57a4ff"/><path d="m14 37a3 3 0 0 1 0 6 2.965 2.965 0 0 1 -2-.77 2.986 2.986 0 0 0 0-4.46 2.965 2.965 0 0 1 2-.77z" fill="#ffde55"/><path d="m7 28h8v4h-8z" fill="#57a4ff"/><path d="m12 37.77a3 3 0 0 1 -2 5.23 3 3 0 0 1 0-6 2.965 2.965 0 0 1 2 .77z" fill="#ffde55"/><path d="m34.631 11.157 1.7 1.053a10.933 10.933 0 0 1 9.354-5.21v-2a12.922 12.922 0 0 0 -11.054 6.157z"/><path d="m60 2h-17.32a12.931 12.931 0 0 0 -11.06 6.17l-8.19 13.83h-18.43a3.009 3.009 0 0 0 -3 3v20a3.009 3.009 0 0 0 3 3h34a3.009 3.009 0 0 0 3-3v-6.03a4.332 4.332 0 0 0 .53-.43l8.84-7.54h1.63a9.014 9.014 0 0 0 9-9v-18a2.006 2.006 0 0 0 -2-2zm-20 43a1 1 0 0 1 -1 1h-34a1 1 0 0 1 -1-1v-20a1 1 0 0 1 1-1h34a1 1 0 0 1 1 1v1.81l-2 2.05v-.86a1 1 0 0 0 -1-1h-8a1 1 0 0 0 -1 1v4a1 1 0 0 0 1 1h5.45a4.931 4.931 0 0 0 .66 5h-3.11v2h6v-.17a4.569 4.569 0 0 0 1.05.12 5.014 5.014 0 0 0 .95-.09zm-4-16v1.91l-.08.09h-5.92v-2zm24-7a7.008 7.008 0 0 1 -7 7h-2a.969.969 0 0 0 -.65.24l-9.18 7.83a3.075 3.075 0 0 1 -4.24 0 2.994 2.994 0 0 1 .01-4.25l12.78-13.12-1.44-1.4-6.3 6.48a3 3 0 0 0 -2.98-2.78h-13.25l7.58-12.79a10.941 10.941 0 0 1 9.35-5.21h17.32z"/><path d="m32 41h2v2h-2z"/><path d="m36 41h2v2h-2z"/><path d="m24 41h2v2h-2z"/><path d="m28 41h2v2h-2z"/><path d="m24 38h6v2h-6z"/><path d="m7 33h8a1 1 0 0 0 1-1v-4a1 1 0 0 0 -1-1h-8a1 1 0 0 0 -1 1v4a1 1 0 0 0 1 1zm1-4h6v2h-6z"/><path d="m27 32v-4a1 1 0 0 0 -1-1h-8a1 1 0 0 0 -1 1v4a1 1 0 0 0 1 1h8a1 1 0 0 0 1-1zm-2-1h-6v-2h6z"/><path d="m14 36a3.967 3.967 0 0 0 -2.009.551 3.957 3.957 0 0 0 -1.991-.551 4 4 0 0 0 0 8 3.957 3.957 0 0 0 1.991-.551 4 4 0 1 0 2.009-7.449zm-6 4a2 2 0 1 1 2 2 2 2 0 0 1 -2-2zm6 2a1.98 1.98 0 0 1 -.515-.076 3.851 3.851 0 0 0 0-3.848 1.98 1.98 0 0 1 .515-.076 2 2 0 0 1 0 4z"/><path d="m56 40h-2v2a2 2 0 0 0 -2 2v2a2 2 0 0 0 2 2h2v2h-4v2h2v2h2v-2a2 2 0 0 0 2-2v-2a2 2 0 0 0 -2-2h-2v-2h4v-2h-2z"/><path d="m46 48h-2v2a2 2 0 0 0 -2 2v2a2 2 0 0 0 2 2h2v2h-4v2h2v2h2v-2a2 2 0 0 0 2-2v-2a2 2 0 0 0 -2-2h-2v-2h4v-2h-2z"/><path d="m5 16h2v-2h2v-2h-2v-2h-2v2h-2v2h2z"/><path d="m13 20h2v-2h2v-2h-2v-2h-2v2h-2v2h2z"/><path d="m7 54h-2v2h-2v2h2v2h2v-2h2v-2h-2z"/><path d="m15 50h-2v2h-2v2h2v2h2v-2h2v-2h-2z"/></g></svg>